<?xml version="1.0" standalone="no"?>
<!DOCTYPE svg PUBLIC "-//W3C//DTD SVG 20010904//EN"
 "http://www.w3.org/TR/2001/REC-SVG-20010904/DTD/svg10.dtd">
<svg version="1.0" xmlns="http://www.w3.org/2000/svg"
 width="854.000000pt" height="1394.000000pt" viewBox="0 0 854.000000 1394.000000"
 preserveAspectRatio="xMidYMid meet">

<g transform="translate(0.000000,1394.000000) scale(0.100000,-0.100000)"
fill="#000000" stroke="none">
<path d="M2294 13817 c-29 -14 -64 -41 -80 -63 l-29 -38 2 -185 c1 -102 13
-395 27 -651 36 -648 87 -1653 84 -1655 -2 -1 -43 10 -93 26 -49 15 -490 149
-980 298 -490 150 -898 274 -907 277 -35 11 -142 -169 -177 -296 -25 -89 -28
-244 -6 -362 55 -311 277 -700 557 -976 l74 -72 774 25 c425 14 777 25 781 25
4 0 10 -57 13 -127 3 -71 9 -179 12 -242 l6 -114 -40 32 c-91 72 -213 99 -298
66 -92 -35 -151 -110 -190 -240 -23 -77 -26 -305 -5 -380 43 -151 128 -247
252 -286 79 -25 186 -24 259 1 30 10 56 18 57 16 3 -3 22 -651 33 -1136 14
-649 28 -1669 36 -2639 l7 -823 -202 7 -201 8 0 -252 c0 -138 -1 -251 -2 -251
-2 0 -158 16 -348 35 -190 19 -351 35 -357 35 -17 0 -18 -204 -2 -317 50 -369
247 -658 535 -786 113 -50 177 -62 334 -62 153 0 274 19 358 55 39 17 42 18
42 2 0 -9 9 -377 20 -817 11 -440 20 -808 20 -818 0 -14 -4 -16 -18 -8 -11 6
-23 31 -31 63 -16 73 -48 126 -99 165 -147 112 -352 36 -443 -164 -32 -70 -36
-108 -15 -175 19 -64 57 -110 118 -144 48 -26 62 -29 143 -29 79 0 96 3 138
27 l49 27 69 -34 69 -35 0 -253 0 -253 34 -17 c114 -54 381 -63 466 -16 l45
24 3 113 c1 61 5 112 8 112 2 0 123 -76 267 -170 l262 -170 519 0 518 0 -17
28 c-104 162 -397 513 -498 595 -42 34 -47 43 -47 80 0 66 -27 174 -60 245
l-30 65 66 126 c37 69 91 163 119 207 177 273 407 376 546 244 77 -73 137
-258 154 -472 7 -85 6 -88 -14 -88 -15 0 -28 14 -46 50 -70 138 -221 211 -342
165 -66 -25 -125 -84 -157 -155 -68 -152 -29 -311 93 -379 52 -28 160 -40 214
-22 19 7 56 30 81 52 44 39 47 40 85 29 l40 -10 -14 -48 c-8 -26 -41 -137 -74
-247 -33 -109 -58 -201 -56 -203 12 -12 420 -52 530 -52 l52 0 24 52 c57 122
116 167 217 168 66 0 95 -15 154 -78 47 -50 80 -106 92 -154 l6 -28 521 0
c413 0 519 3 513 13 -64 108 -323 384 -444 472 -36 26 -69 53 -73 61 -5 8 -12
66 -17 128 -6 78 -17 137 -34 187 l-26 73 179 301 c672 1129 1023 1879 1179
2520 98 401 107 468 106 800 0 299 -16 442 -75 681 -79 323 -220 631 -421 916
-274 389 -650 703 -1128 943 -117 59 -130 68 -125 88 13 55 105 522 105 534 0
8 -41 -7 -111 -43 l-111 -55 6 33 c3 18 9 137 12 263 5 180 3 256 -10 351 -61
460 -236 734 -583 912 -163 83 -332 127 -537 139 l-108 6 6 126 c3 69 8 192
12 272 l6 146 91 7 c49 3 112 6 139 6 41 0 48 3 48 20 0 11 3 20 8 20 4 0 473
16 1042 35 569 19 1040 35 1046 35 29 0 69 255 61 389 -8 143 -41 225 -126
312 -36 36 -89 78 -116 92 -109 55 -272 87 -442 87 -307 0 -909 -151 -1512
-379 l-183 -69 6 41 c14 96 60 652 92 1091 8 116 17 351 21 521 5 292 4 315
-15 397 -45 183 -131 307 -260 370 -166 82 -406 28 -543 -123 -67 -72 -130
-208 -184 -394 -62 -214 -91 -295 -132 -363 -44 -73 -65 -95 -117 -123 -40
-21 -46 -22 -92 -9 -98 28 -158 121 -239 366 -26 76 -62 175 -80 219 -18 44
-57 136 -85 205 -71 171 -186 396 -261 510 -89 135 -216 260 -304 302 -58 27
-84 33 -155 36 -74 3 -92 0 -136 -21z m221 -81 c147 -69 294 -253 450 -565
100 -200 215 -484 299 -736 48 -145 127 -254 218 -299 143 -71 285 6 383 207
24 51 78 193 118 317 41 124 86 249 102 279 121 240 437 307 591 127 92 -107
144 -314 144 -571 0 -60 -9 -222 -19 -360 -11 -137 -25 -341 -32 -452 -11
-172 -15 -203 -28 -203 -9 0 -536 -11 -1171 -25 -635 -14 -1165 -25 -1177 -25
-22 0 -23 3 -23 93 0 219 -46 1100 -86 1662 -27 368 -27 460 -3 511 31 64 142
83 234 40z m-172 -2617 l2019 -601 111 52 c285 134 806 324 1162 424 493 137
876 192 1058 152 162 -36 278 -122 337 -249 37 -78 50 -146 50 -257 0 -76 -13
-187 -24 -197 -2 -2 -1982 -83 -2048 -83 -5 0 -8 27 -8 60 l0 60 -465 0 -465
0 0 -80 0 -80 -52 0 -53 0 -44 105 -43 106 -222 -115 -223 -115 -1317 -51
c-725 -27 -1321 -48 -1326 -45 -13 8 -145 167 -208 251 -252 337 -382 634
-382 877 0 89 27 203 72 300 23 48 44 87 47 87 3 0 914 -270 2024 -601z m2407
276 c0 -92 -45 -663 -52 -671 -2 -2 -256 13 -565 32 l-561 35 -593 183 -594
183 -3 116 -3 117 68 1 c37 0 520 11 1073 23 553 13 1056 24 1118 25 l112 1 0
-45z m-585 -675 c187 -11 369 -23 405 -26 l65 -6 -138 -70 -139 -69 -316 97
c-174 53 -319 99 -321 101 -3 2 20 1 50 -2 29 -3 207 -14 394 -25z m-95 -466
l0 -36 178 6 c97 4 226 9 286 12 l109 6 -7 -156 c-3 -86 -9 -226 -12 -311 l-6
-155 51 0 c29 0 95 -5 149 -11 643 -70 989 -436 1038 -1099 6 -92 -21 -599
-34 -612 -4 -4 -166 -76 -359 -161 l-353 -155 0 64 0 64 -181 0 -182 0 7 -69
6 -69 -58 15 c-31 8 -216 57 -411 109 -195 51 -357 92 -359 90 -3 -4 9 -82 24
-158 l6 -28 -725 0 -725 0 -6 83 c-3 45 -10 300 -16 567 -5 267 -13 567 -16
667 l-7 181 -61 -63 c-67 -69 -125 -95 -216 -95 -102 0 -211 69 -258 163 -28
56 -52 164 -52 235 0 69 26 194 53 250 91 195 289 162 442 -72 l50 -77 3 40
c3 35 7 42 30 47 93 19 201 86 259 160 91 116 154 279 175 457 11 97 14 107
33 107 11 0 112 5 224 10 112 6 206 8 209 6 2 -3 -60 -37 -138 -76 -86 -43
-140 -76 -137 -83 40 -103 101 -237 107 -235 5 2 187 90 404 197 273 134 395
199 392 208 -4 9 7 13 39 13 45 0 45 0 45 -36z m-1205 -61 c-41 -358 -160
-560 -363 -623 -36 -11 -67 -18 -70 -16 -5 6 -24 667 -19 672 3 3 269 17 415
22 l43 2 -6 -57z m393 -2760 c321 -490 600 -1115 753 -1688 106 -396 181 -827
204 -1165 l7 -95 -92 160 c-243 421 -488 780 -731 1070 -146 173 -410 438
-536 535 l-33 25 240 280 240 280 -389 3 -389 2 -6 63 c-3 34 -8 198 -12 365
l-6 302 330 0 330 0 90 -137z m734 -20 l26 -158 -191 -192 c-105 -106 -194
-189 -198 -185 -4 4 -40 70 -82 148 -82 153 -202 357 -278 472 l-48 72 372 0
373 0 26 -157z m2259 -94 c164 -83 382 -225 372 -242 -5 -10 -89 -122 -135
-183 -6 -8 93 -70 307 -195 l314 -184 1 -70 c0 -105 -18 -465 -30 -595 -32
-352 -118 -767 -213 -1035 l-14 -40 -7 65 c-51 472 -207 1138 -349 1491 -158
392 -303 676 -536 1053 -9 13 -11 33 -7 49 l6 26 77 -35 c42 -19 138 -67 214
-105z m-256 -78 c58 -91 128 -221 122 -227 -10 -10 -217 100 -217 116 0 43 33
189 42 184 5 -4 29 -36 53 -73z m-515 -71 c201 -73 373 -137 383 -142 13 -7
17 -5 17 11 0 11 4 22 10 26 7 4 162 -65 179 -81 8 -7 -54 -187 -134 -389
-113 -286 -313 -745 -324 -745 -3 0 -26 71 -50 158 -112 403 -281 869 -403
1111 -64 127 -85 200 -55 188 6 -2 176 -64 377 -137z m-664 -7 c-4 -32 -31
-357 -61 -723 -30 -366 -56 -673 -57 -683 -2 -13 -159 141 -518 508 -283 289
-516 534 -518 543 -2 11 66 85 183 202 102 102 185 180 185 175 0 -18 59 -357
63 -361 2 -2 158 86 347 196 190 110 353 200 363 200 17 0 18 -6 13 -57z m238
-493 c58 -279 123 -640 192 -1058 l55 -335 -23 -32 -22 -33 -58 50 c-32 27
-58 57 -58 66 0 22 -146 1429 -165 1592 -8 69 -14 134 -14 145 1 28 40 -139
93 -395z m1760 262 c170 -153 351 -370 489 -589 80 -128 215 -396 256 -508 70
-192 124 -470 143 -738 27 -391 -30 -758 -197 -1262 -102 -307 -223 -596 -425
-1012 l-113 -233 -134 0 c-123 0 -134 1 -129 18 19 61 81 373 101 507 61 407
81 741 70 1210 -4 182 -7 335 -7 340 0 6 21 69 45 141 146 427 226 923 243
1504 l7 225 -306 176 -306 175 57 86 57 86 35 -28 c19 -15 71 -60 114 -98z
m-538 -239 c183 -407 280 -670 353 -954 147 -570 212 -1168 197 -1809 -5 -237
-8 -277 -22 -287 -16 -12 -152 -46 -229 -58 l-40 -7 -17 49 c-10 26 -38 82
-63 124 -293 491 -915 668 -1420 406 -242 -126 -433 -345 -515 -591 l-23 -68
-56 6 c-30 4 -86 14 -124 22 l-69 16 6 67 c20 203 26 321 26 547 0 732 -176
1606 -465 2299 -36 88 -69 167 -72 175 -2 8 209 -201 471 -465 l476 -480 -6
-80 c-3 -44 -19 -222 -34 -395 -16 -173 -28 -315 -27 -317 5 -4 560 -43 564
-40 3 4 -21 257 -33 346 l-6 45 55 -47 55 -47 25 32 25 32 6 -35 c4 -19 15
-95 27 -169 11 -74 21 -136 23 -138 5 -4 469 27 474 33 5 5 -64 300 -144 613
l-65 253 112 252 c117 265 271 640 334 817 21 58 42 116 47 130 9 24 12 21 49
-52 21 -43 69 -144 105 -225z m-3066 94 c0 -2 -99 -120 -220 -263 l-221 -259
33 -25 c240 -185 502 -460 738 -775 215 -287 541 -800 667 -1050 l26 -50 -6
-300 c-8 -439 -53 -763 -162 -1160 -37 -134 -122 -369 -162 -448 -22 -45 -26
-47 -56 -43 -18 3 -122 17 -232 32 -435 56 -878 141 -902 172 -9 10 -13 53
-13 126 l1 111 127 82 c152 98 362 264 455 361 l67 70 0 1151 c0 1016 -2 1151
-15 1151 -13 0 -15 -88 -15 -730 0 -401 -3 -730 -7 -730 -35 0 -767 40 -768
42 -1 2 -5 573 -8 1271 l-6 1267 340 0 c186 0 339 -2 339 -3z m2481 -2552
c210 -31 402 -124 557 -269 162 -152 271 -358 307 -581 91 -558 -297 -1085
-862 -1170 -126 -19 -226 -19 -338 1 -444 77 -779 412 -850 849 -90 552 291
1076 850 1170 108 18 220 18 336 0z m-2961 -30 c201 -8 416 -17 478 -21 l112
-6 0 -230 0 -230 -77 6 c-43 4 -274 17 -513 31 -239 14 -470 27 -512 31 l-78
6 0 220 0 220 113 -6 c61 -4 276 -13 477 -21z m-735 -480 c308 -36 562 -65
566 -65 4 0 10 16 13 35 4 19 12 35 19 35 7 0 170 -9 362 -20 193 -11 353 -20
358 -20 4 0 7 -67 7 -149 l0 -149 -101 -97 c-338 -324 -661 -495 -934 -495
l-63 0 -58 76 c-51 67 -61 75 -83 69 -37 -8 -71 -50 -71 -86 0 -36 -5 -35
-113 14 -61 27 -172 97 -156 97 59 0 794 52 798 56 3 4 -117 4 -266 2 l-273
-5 -71 96 c-40 53 -75 100 -80 105 -12 13 -75 -31 -98 -68 -28 -44 -26 -68 5
-105 l26 -31 -49 0 c-55 0 -72 14 -131 101 -39 59 -105 189 -99 196 3 2 191 0
418 -6 475 -13 484 -13 478 -6 -3 2 -115 12 -250 20 -134 9 -263 18 -286 21
l-42 5 -67 125 c-73 139 -68 136 -150 88 -71 -40 -99 -106 -70 -163 l17 -31
-35 0 c-33 0 -36 3 -47 43 -24 87 -38 195 -39 285 0 50 1 92 3 92 2 0 255 -29
562 -65z m-267 -271 l53 -105 -83 6 c-71 6 -86 10 -105 31 -34 37 -39 71 -16
102 19 25 79 72 92 72 4 0 30 -48 59 -106z m167 -344 c27 -36 53 -71 58 -77 7
-10 -5 -13 -56 -13 -58 0 -68 3 -96 29 -40 38 -41 73 0 113 16 17 34 27 38 22
4 -5 30 -38 56 -74z m4839 -137 c-13 -58 -94 -427 -94 -430 0 -1 67 -4 148 -5
l149 -3 -143 -255 c-78 -140 -182 -322 -231 -405 l-89 -150 -109 -7 c-187 -12
-418 -71 -557 -142 l-67 -33 -95 33 c-156 54 -321 85 -486 91 l-145 6 -24 54
c-30 67 -100 147 -155 175 -89 46 -249 33 -356 -30 -60 -36 -170 -140 -215
-206 l-37 -54 -66 -7 c-171 -17 -369 -70 -543 -145 l-87 -38 -68 70 c-185 186
-423 335 -660 413 l-81 26 -6 187 c-4 103 -7 242 -7 310 0 122 0 122 23 117
132 -31 914 -156 1129 -180 l56 -6 60 153 c33 84 74 195 92 246 32 89 34 93
59 88 30 -7 243 -32 349 -41 l73 -7 21 -42 c153 -300 452 -516 789 -571 507
-82 1009 214 1180 697 l24 68 80 19 c44 10 83 19 87 20 3 1 4 -7 2 -16z
m-4609 -100 c59 -73 59 -73 28 -68 -15 2 -45 7 -65 10 -34 5 -38 9 -38 35 0
26 22 60 38 60 4 0 21 -17 37 -37z m2570 -1643 c21 -8 25 -14 19 -28 -4 -9 -8
-33 -9 -52 -2 -31 -6 -36 -36 -43 -69 -17 -126 33 -101 88 19 40 74 55 127 35z
m-2324 -21 c11 -11 19 -24 17 -28 -9 -22 -98 -111 -112 -111 -24 0 -48 44 -40
74 8 32 67 86 94 86 11 0 29 -9 41 -21z"/>
<path d="M2559 12994 c136 -155 199 -317 208 -539 6 -145 -8 -247 -53 -380
-14 -42 -23 -79 -20 -82 11 -11 84 163 101 241 26 115 17 309 -19 430 -44 148
-103 253 -184 329 -65 60 -86 61 -33 1z"/>
<path d="M4574 12725 c-116 -69 -205 -194 -239 -336 -19 -83 -19 -229 0 -304
17 -64 72 -191 80 -183 3 2 -7 56 -21 119 -46 202 -34 366 39 503 31 59 131
170 192 214 48 34 15 25 -51 -13z"/>
<path d="M3656 10060 c-63 -25 -129 -89 -157 -154 -92 -213 167 -434 382 -326
65 33 116 87 139 147 25 68 25 108 0 175 -53 141 -221 214 -364 158z m220 -38
c23 -11 55 -37 73 -58 31 -34 39 -50 55 -101 l7 -23 -250 0 c-138 0 -251 2
-251 4 0 2 7 23 15 47 24 68 86 124 165 150 41 14 142 3 186 -19z m-216 -243
c0 -47 65 -109 115 -109 50 0 115 62 115 109 l0 31 60 0 c66 0 66 -1 48 -61
-36 -123 -178 -194 -312 -155 -91 27 -175 119 -176 194 0 21 4 22 75 22 l75 0
0 -31z"/>
<path d="M4268 10060 c-69 -21 -136 -81 -163 -147 -58 -138 73 -303 240 -303
130 0 255 113 255 230 0 84 -76 183 -165 213 -51 18 -122 21 -167 7z m177 -44
c58 -27 88 -57 110 -108 29 -71 40 -68 -210 -68 -250 0 -239 -3 -210 68 48
114 192 164 310 108z m-167 -240 c15 -40 66 -76 108 -76 43 0 90 33 105 74 11
31 17 36 46 36 l33 0 -15 -37 c-36 -85 -106 -127 -210 -127 -104 0 -174 42
-210 127 l-15 37 73 0 73 0 12 -34z"/>
<path d="M2167 9497 c38 -40 80 -95 93 -122 48 -99 34 -204 -32 -245 -43 -26
-67 -25 -109 3 -47 31 -79 83 -79 126 0 88 67 109 132 41 41 -44 46 -44 23 -1
-21 42 -72 81 -106 81 -71 0 -116 -120 -75 -199 35 -66 129 -126 187 -118 152
20 184 222 62 385 -26 35 -137 122 -155 122 -6 0 21 -33 59 -73z"/>
<path d="M4465 9530 c-220 -10 -416 -20 -435 -23 -19 -2 178 -5 438 -5 l472
-2 0 -27 c-1 -53 -30 -167 -60 -231 -59 -127 -201 -237 -355 -277 -78 -20
-240 -19 -318 1 -177 46 -310 180 -351 355 l-6 27 266 7 c145 4 263 9 262 11
-3 2 -528 34 -568 34 -9 0 -11 -12 -7 -45 4 -25 4 -45 0 -45 -3 0 -21 11 -39
25 -54 42 -170 95 -251 115 -86 22 -213 26 -295 9 -194 -40 -349 -206 -404
-434 -19 -77 -25 -322 -11 -409 l9 -48 66 6 c37 3 670 51 1406 106 737 55
1341 102 1344 105 12 12 -18 287 -39 347 -39 117 -119 199 -235 239 -97 34
-271 22 -363 -25 l-34 -18 7 25 c7 30 26 156 26 180 0 21 21 21 -525 -3z
m-987 -105 c91 -22 176 -60 268 -121 70 -46 85 -61 110 -111 40 -81 152 -191
234 -231 134 -66 275 -76 445 -32 177 46 300 138 374 279 38 74 44 79 99 104
81 36 153 50 236 45 178 -12 303 -129 335 -314 11 -69 25 -234 19 -234 -5 0
-2134 -162 -2497 -190 -140 -11 -257 -18 -259 -16 -11 12 -13 272 -3 350 34
256 168 428 368 475 60 14 202 12 271 -4z"/>
</g>
</svg>
